<?xml version="1.0" standalone="no"?>
<!DOCTYPE svg PUBLIC "-//W3C//DTD SVG 20010904//EN"
 "http://www.w3.org/TR/2001/REC-SVG-20010904/DTD/svg10.dtd">
<svg version="1.0" xmlns="http://www.w3.org/2000/svg"
 width="225.000000pt" height="225.000000pt" viewBox="0 0 225.000000 225.000000"
 preserveAspectRatio="xMidYMid meet">

<g transform="translate(0.000000,225.000000) scale(0.100000,-0.100000)"
fill="#000000" stroke="none">
<path d="M1525 2244 c-63 -10 -143 -37 -210 -72 -61 -31 -107 -73 -356 -321
-306 -306 -324 -330 -368 -473 -70 -230 -12 -451 167 -641 47 -48 60 -57 90
-57 30 0 45 10 104 68 88 88 88 101 7 188 -33 36 -70 86 -81 110 -44 100 -40
225 8 315 16 28 122 142 277 297 297 295 314 307 457 307 73 -1 94 -5 144 -30
74 -35 136 -98 172 -173 24 -48 28 -70 29 -142 0 -71 -4 -94 -26 -140 -14 -31
-41 -73 -59 -93 l-32 -37 22 -87 c12 -47 25 -124 28 -171 l7 -84 115 118 c175
181 224 289 224 494 0 99 -4 126 -27 194 -36 102 -68 155 -140 232 -118 127
-259 192 -427 199 -52 2 -108 1 -125 -1z"/>
<path d="M1302 1506 c-57 -55 -66 -69 -66 -99 0 -30 10 -46 56 -94 66 -70 92
-117 108 -199 14 -70 2 -151 -32 -219 -22 -45 -491 -523 -549 -560 -58 -37
-143 -58 -215 -52 -288 23 -427 373 -231 583 l29 32 -22 87 c-12 48 -25 125
-28 172 l-7 86 -111 -115 c-117 -121 -165 -193 -205 -308 -30 -86 -32 -265 -5
-354 65 -215 228 -378 441 -442 86 -26 267 -24 352 3 136 45 182 80 456 352
287 284 340 351 383 484 38 117 38 267 0 384 -31 96 -102 208 -175 276 -72 67
-95 65 -179 -17z"/>
</g>
</svg>
